<svg width="20" height="19" viewBox="0 0 20 19" fill="none" xmlns="http://www.w3.org/2000/svg">
    <path d="M6 5V3C6 2.46957 6.21071 1.96086 6.58579 1.58579C6.96086 1.21071 7.46957 1 8 1H12C12.5304 1 13.0391 1.21071 13.4142 1.58579C13.7893 1.96086 14 2.46957 14 3V5M10 10V10.01M1 11C3.79158 12.4067 6.87403 13.1394 10 13.1394C13.126 13.1394 16.2084 12.4067 19 11M3 5H17C18.1046 5 19 5.89543 19 7V16C19 17.1046 18.1046 18 17 18H3C1.89543 18 1 17.1046 1 16V7C1 5.89543 1.89543 5 3 5Z"
          stroke="white" stroke-width="2" stroke-linecap="round" stroke-linejoin="round"/>
</svg>
