<svg xmlns="http://www.w3.org/2000/svg" width="20" height="19" fill="none" viewBox="0 0 20 19">
    <path stroke="#fff" stroke-linecap="round" stroke-linejoin="round" stroke-width="2" d="M6 5V3c0-.53043.21071-1.03914.58579-1.41421C6.96086 1.21071 7.46957 1 8 1h4c.5304 0 1.0391.21071 1.4142.58579C13.7893 1.96086 14 2.46957 14 3v2m-4 5v.01M1 11c2.79158 1.4067 5.87403 2.1394 9 2.1394 3.126 0 6.2084-.7327 9-2.1394M3 5h14c1.1046 0 2 .89543 2 2v9c0 1.1046-.8954 2-2 2H3c-1.10457 0-2-.8954-2-2V7c0-1.10457.89543-2 2-2Z"/>
</svg>