<svg width="24" height="24" viewBox="0 0 24 24" fill="none" xmlns="http://www.w3.org/2000/svg">
    <path d="M3 3V21H21M10.16 10.6201L12.5 13.5001M15.088 13.3282L17.925 8.74219M11 9C11 10.1046 10.1046 11 9 11C7.89543 11 7 10.1046 7 9C7 7.89543 7.89543 7 9 7C10.1046 7 11 7.89543 11 9ZM21 7C21 8.10457 20.1046 9 19 9C17.8954 9 17 8.10457 17 7C17 5.89543 17.8954 5 19 5C20.1046 5 21 5.89543 21 7ZM16 15C16 16.1046 15.1046 17 14 17C12.8954 17 12 16.1046 12 15C12 13.8954 12.8954 13 14 13C15.1046 13 16 13.8954 16 15Z"
          stroke="#158FFF" stroke-width="2" stroke-linecap="round" stroke-linejoin="round"/>
</svg>
