<svg width="24" height="24" viewBox="0 0 24 24" fill="none" xmlns="http://www.w3.org/2000/svg">
    <path d="M18 8V5C18 4.73478 17.8946 4.48043 17.7071 4.29289C17.5196 4.10536 17.2652 4 17 4H4C3.73478 4 3.48043 4.10536 3.29289 4.29289C3.10536 4.48043 3 4.73478 3 5V17C3 17.2652 3.10536 17.5196 3.29289 17.7071C3.48043 17.8946 3.73478 18 4 18H13M16 9H18M14 8H20C20.5523 8 21 8.44772 21 9V19C21 19.5523 20.5523 20 20 20H14C13.4477 20 13 19.5523 13 19V9C13 8.44772 13.4477 8 14 8Z"
          stroke="#158FFF" stroke-width="2" stroke-linecap="round" stroke-linejoin="round"/>
</svg>
