<svg width="16" height="16" viewBox="0 0 16 16" fill="none" xmlns="http://www.w3.org/2000/svg">
    <path d="M8.2796 11.3025C8.10471 11.2103 7.89565 11.2102 7.72067 11.3022L4.68214 12.8998L5.26259 9.51607C5.296 9.32128 5.23135 9.12253 5.08973 8.98468L2.62874 6.58915L6.02395 6.09709C6.21946 6.06875 6.3885 5.94599 6.47593 5.76883L7.99522 2.69037L9.51451 5.76883C9.60195 5.94599 9.77098 6.06875 9.9665 6.09709L13.3617 6.58915L10.9007 8.98468C10.7591 9.12253 10.6944 9.32128 10.7279 9.51607L11.3081 12.8983L8.2796 11.3025Z"
          stroke="#E3AD09" stroke-width="1.2" stroke-linecap="round" stroke-linejoin="round"/>
    <path d="M7.99989 11.8334L3.88522 13.9967L4.67122 9.41472L1.33789 6.17005L5.93789 5.50338L7.99522 1.33472V5.50338V8V9.41472V11L7.99989 11.8334Z"
          fill="#E3AD09"/>
</svg>
