<svg width="32" height="32" viewBox="0 0 32 32" fill="none" xmlns="http://www.w3.org/2000/svg">
    <g clip-path="url(#clip0_24_2601)">
        <path d="M0.924481 9.90935L15.9218 19.4929C15.9465 19.5092 15.9749 19.5166 16.0029 19.5166C16.0313 19.5166 16.0595 19.5092 16.084 19.4929L31.0812 9.90935C31.124 9.88166 31.1505 9.83393 31.1505 9.7825C31.1505 9.73082 31.1243 9.68334 31.0812 9.65515L16.084 0.0709755C16.0348 0.0398181 15.971 0.0398181 15.9215 0.0709755L0.924228 9.65578C0.880706 9.68373 0.854492 9.7312 0.854492 9.78313C0.854492 9.83407 0.880704 9.88229 0.924228 9.90949L0.924481 9.90935Z"
              fill="#158FFF"/>
        <path d="M31.0816 15.8769L28.454 14.1977C28.4041 14.1665 28.3412 14.1665 28.2913 14.1977L16.0028 22.0505L3.71428 14.1977C3.66458 14.1665 3.60127 14.1665 3.55182 14.1977L0.924716 15.8769C0.881195 15.9049 0.85498 15.9529 0.85498 16.0038C0.85498 16.0547 0.881192 16.1034 0.924716 16.1306L15.922 25.7142C15.9467 25.7303 15.9752 25.7379 16.0031 25.7379C16.0315 25.7379 16.0597 25.73 16.0842 25.7142L31.0815 16.1306C31.1242 16.1034 31.1507 16.0547 31.1507 16.0038C31.151 15.9529 31.1247 15.9049 31.0817 15.8769H31.0816Z"
              fill="#F2C94C"/>
        <path d="M31.0816 22.0989L28.454 20.4196C28.4041 20.3885 28.3412 20.3885 28.2913 20.4196L16.0028 28.2731L3.71428 20.4196C3.66458 20.3885 3.60127 20.3885 3.55182 20.4196L0.924716 22.0989C0.881195 22.1261 0.85498 22.1743 0.85498 22.2257C0.85498 22.2772 0.881192 22.3254 0.924716 22.3526L15.922 31.9367C15.9467 31.9531 15.9752 31.9605 16.0031 31.9605C16.0315 31.9605 16.0597 31.9531 16.0842 31.9367L31.0815 22.3526C31.1242 22.3254 31.1507 22.2767 31.1507 22.2257C31.151 22.1743 31.1247 22.1261 31.0817 22.0989H31.0816Z"
              fill="#F2C94C"/>
    </g>
    <defs>
        <clipPath id="clip0_24_2601">
            <rect width="32" height="32" fill="white"/>
        </clipPath>
    </defs>
</svg>
