<svg width="758" height="758" viewBox="0 0 758 758" fill="none" xmlns="http://www.w3.org/2000/svg">
    <g filter="url(#filter0_d_0_151)">
        <path fill-rule="evenodd" clip-rule="evenodd"
              d="M430.089 621.784C502.518 621.784 566.079 567.907 530.383 494.729C494.687 421.551 627.319 423.914 666.28 373.338C713.794 311.659 700.034 49.8385 395.013 209.457C346.153 235.026 220.668 183.152 179.044 208.891C130.048 239.188 61.1144 301.227 130.048 364.776C164.004 396.079 42.2654 477.328 95.5844 550.106C147.61 621.119 184.08 553.423 263.288 567.907C342.497 582.392 376.297 621.784 430.089 621.784Z"
              fill="#158FFF"/>
        <path d="M346.022 494.475C346.022 494.475 362.699 486.63 368.925 481.173C375.151 475.715 382.891 462.155 382.891 462.155C382.891 462.155 467.914 523.559 523.352 514.8C536.125 512.782 561.014 504.291 562.601 489.332C566.935 448.483 506.971 438.044 520.07 417.329C528.065 404.685 552.902 423.504 552.902 423.504L655.92 474.176C655.92 474.176 620.33 561.905 533.962 565.421C427.718 569.746 346.022 494.475 346.022 494.475Z"
              fill="white"/>
        <path fill-rule="evenodd" clip-rule="evenodd"
              d="M264.345 150.905C263.378 150.526 258.186 144.167 251.593 143.01C248.598 142.484 251.317 146.299 248.02 146.333C238.201 146.435 222.244 144.591 219.288 146.333C217.091 147.624 221.929 152.134 219.288 152.341C194.366 154.294 156.347 179.178 148.098 191.25C145.473 195.092 166.704 188.573 163.321 190.473C159.525 192.605 155.314 206.563 152.796 217.344C151.053 224.768 149.956 234.322 149.568 244.715C149.246 253.688 149.375 255.173 150.666 260.079C152.15 265.566 153.312 267.18 155.314 266.406C156.024 266.147 156.347 265.179 156.347 263.372C156.347 261.951 157.121 257.691 158.09 253.882L159.768 247.039L160.478 249.88C161.382 253.172 166.675 263.372 171.452 270.795C171.71 271.189 172.819 270.688 173.818 268.272C174.729 266.07 174.359 262.553 175.907 258.784C179.432 250.197 186.352 239.032 194.366 230.096C206.21 216.888 210.139 201.603 221.242 189.333C241.961 166.435 267.965 152.326 264.345 150.905Z"
              fill="white"/>
        <path fill-rule="evenodd" clip-rule="evenodd"
              d="M163.616 193.588C160.292 196.261 155.359 217.939 155.274 218.302C153.531 225.725 151.851 251.506 153.568 256.387C155.286 261.268 160.095 243.673 160.095 243.673C160.095 243.673 167.363 262.547 173.786 267.722C174.06 267.943 166.152 244.371 163.616 230.609C160.268 212.444 165.507 192.067 163.616 193.588Z"
              fill="#E7EAEE"/>
        <path fill-rule="evenodd" clip-rule="evenodd"
              d="M287.496 573.251C293.693 571.896 304.15 567.175 308.154 565.561C312.157 563.946 324.357 546.719 328.747 527.288C331.91 512.957 333.524 492.558 331.716 489.136C331.449 488.651 330.473 479.374 333.072 482.403C338.85 489.136 345.709 499.706 367.35 480.766C373.244 475.607 381.057 468.949 379 463.064C373.244 446.596 348.295 413.435 344.492 410.924C339.944 407.92 316.959 410.472 282.752 400.376C243.958 388.926 227.805 355.209 212.624 359.598C200.347 363.148 170.932 384.96 163.55 398.773C128.698 463.984 170.932 509.679 180.55 522.803L189.889 526.836L190.211 535.164L190.663 540.393C191.503 550.399 191.825 551.303 196.344 554.66C207.641 563.245 229.913 571.25 250.054 574.091C259.415 575.382 279.749 574.93 287.496 573.251Z"
              fill="white"/>
        <path fill-rule="evenodd" clip-rule="evenodd"
              d="M193.562 532.116L194.013 537.344C194.853 547.351 195.175 548.254 199.694 551.611C206.359 556.676 216.843 561.539 228.455 565.259C236.527 567.844 245.145 569.878 253.404 571.042C262.765 572.333 283.1 571.881 290.846 570.203C294.675 569.373 263.179 544.629 244.624 551.611C230.375 556.973 196.791 516.074 210.446 505.389C225.764 493.402 197.695 446.126 196.791 435.862C195.887 425.598 192.328 423.146 192.224 423.506C192.12 423.866 192.12 425.094 192.4 428.053C193.604 440.806 193.562 532.116 193.562 532.116Z"
              fill="#E7EAEE"/>
        <path fill-rule="evenodd" clip-rule="evenodd"
              d="M190.199 432.932C191.554 432.668 192.867 433.553 193.13 434.908C198.002 459.939 218.611 476.885 255.463 485.746C292.533 494.66 317.784 494.179 331.088 484.665C332.211 483.861 331.374 490.74 330.552 491.267C321.874 496.832 292.371 505.135 257.163 497.63C212.146 488.035 191.01 450.183 188.222 435.864C187.959 434.508 188.843 433.196 190.199 432.932Z"
              fill="#FFB61D"/>
        <path fill-rule="evenodd" clip-rule="evenodd"
              d="M171.426 387.77C172.625 387.085 217.336 438.328 278.696 449.927C340.056 461.526 354.912 454.149 357.3 438.328C357.506 436.963 358.78 436.023 360.145 436.229C361.51 436.435 362.45 437.709 362.244 439.074C359.217 459.126 330.825 463.895 277.855 454.856C225.55 445.93 189.69 424.724 170.498 391.182C169.812 389.984 170.228 388.456 171.426 387.77Z"
              fill="#FFB61D"/>
        <path fill-rule="evenodd" clip-rule="evenodd"
              d="M428.963 384.929C427.284 384.348 425.477 383.057 424.315 381.572L422.378 379.183L429.221 372.405C439.744 362.076 447.813 351.489 454.785 338.901C457.109 334.705 462.983 320.697 462.983 319.341C462.983 318.889 463.694 317.081 464.533 315.209C465.824 312.498 466.792 311.465 469.568 309.916C472.86 307.979 476.605 307.334 478.218 308.431C481.317 310.497 481.317 317.017 478.218 328.249C474.797 340.579 470.214 349.424 460.724 362.141C459.239 364.078 456.463 367.886 454.462 370.533C449.104 377.634 445.618 381.056 440.906 383.702C436.258 386.285 433.546 386.607 428.963 384.929ZM475.313 379.119L479.961 381.185C480.925 381.629 491.558 386.738 504.329 392.875C524.92 402.769 551.071 415.334 551.23 415.334C551.489 415.334 552.7 412.533 552.973 409.266C553.619 402.23 556.007 392.675 558.783 386.026C560.074 383.057 561.107 379.345 561.107 379.023C561.107 378.875 560.058 378.452 558.34 377.759C556.294 376.934 553.302 375.727 550.004 374.148C533.736 366.337 501.91 350.392 497.972 348.003C494.099 345.744 493.324 345.55 493.324 347.035C493.324 348.972 489.387 357.945 486.352 362.786C484.739 365.433 481.575 370.21 479.316 373.373L475.313 379.119ZM550.133 403.714C551.984 404.787 548.777 406.361 548.003 406.619C543.441 407.007 538.071 406.149 533.671 403.585C531.371 401.954 513.256 391.89 501.24 385.215C495.747 382.163 491.528 379.819 490.678 379.313C487.966 377.699 485.384 375.956 484.932 375.439C483.577 373.696 484.868 372.922 488.676 373.244C490.966 373.438 546.134 401.397 550.133 403.714ZM287.716 572.72C292.696 571.63 300.426 568.368 305.348 566.291C306.552 565.783 307.587 565.346 308.374 565.029C312.378 563.414 324.577 546.188 328.967 526.756C332.13 512.425 333.744 492.026 331.937 488.604C330.847 486.623 337.321 493.27 342.143 498.221C343.605 499.721 344.915 501.066 345.816 501.967C373.962 529.92 415.858 552.385 459.368 562.907C481.059 568.201 496.488 570.073 517.21 570.073C552.005 570.073 579.441 563.23 604.359 548.189C605.543 547.474 606.652 546.818 607.709 546.192C616.395 541.049 621.57 537.985 635.733 522.044C651.619 504.162 665.751 462.653 670.464 448.322C672.529 441.866 677.565 416.19 677.565 409.783C677.565 402.197 674.918 398.615 671.303 394.935C664.912 388.673 656.261 386.414 649.096 389.125L645.739 390.416L644.706 386.995C643.221 381.83 640.123 377.699 635.346 374.6C628.245 369.888 627.212 369.565 620.821 369.565C615.85 369.565 614.494 369.823 611.331 371.308L607.651 372.986L606.877 370.662C605.392 365.885 600.412 359.226 596.548 357.299C593.121 355.591 587.189 355.434 583.056 356.202C574.018 357.88 567.563 362.076 564.916 367.951C564.141 369.758 563.173 371.179 562.786 371.179C562.463 371.179 549.746 367.627 534.575 360.913C532.016 359.777 529.612 358.711 527.355 357.711C500.113 345.636 494.208 343.019 494.745 339.74C495.196 336.964 495.067 335.415 494.293 333.027C492.937 329.024 491.388 327.927 486.998 327.927C483.512 327.927 483.512 327.927 483.899 326.184C485.965 316.307 485.901 310.626 483.706 307.011C482.221 304.622 480.478 303.654 476.475 303.073C474.151 302.75 473.054 302.944 470.472 304.364C468.729 305.268 467.244 305.913 467.115 305.784C466.986 305.655 467.438 302.105 468.148 297.909C473.441 266.858 469.352 240.104 455.86 211.7C455.731 211.428 455.581 211.107 455.41 210.739C451.308 201.933 434.815 166.524 387.648 148.657C385.513 147.848 383.493 147.067 381.551 146.315L381.551 146.315C365.484 140.096 354.803 135.961 329.032 136.004C300.146 136.052 290.363 140.136 271.319 148.851C268.673 150.077 266.349 150.787 266.155 150.529C265.961 150.206 264.735 149.432 263.508 148.786C262.282 148.141 259.635 146.527 257.698 145.236C252.146 141.491 248.725 139.942 246.982 140.329C244.981 140.846 244.981 142.524 246.982 143.299C247.821 143.622 248.79 144.719 249.177 145.817C250.016 148.141 250.984 148.399 251.565 146.462C251.824 145.752 252.211 145.236 252.405 145.365C252.478 145.401 252.724 145.517 253.099 145.692L253.099 145.692C254.043 146.134 255.804 146.959 257.698 147.882C260.345 149.174 263.25 150.529 264.025 150.852C265.445 151.368 264.993 151.756 258.86 155.371C234.91 169.444 215.415 191.328 204.505 216.246C202.826 219.991 201.342 222.314 199.792 223.606C195.854 226.898 188.108 236.258 186.3 239.938C185.332 241.939 183.266 245.038 181.652 246.845C180.103 248.653 178.424 250.977 177.843 251.945C177.327 252.978 176.811 253.688 176.617 253.559C176.488 253.366 176.681 250.202 177.133 246.523C178.102 237.937 178.102 235.677 177.327 235.484C176.165 235.161 174.487 239.68 173.776 245.296C173.26 248.718 173.131 253.882 173.454 259.175L173.841 267.568L169.258 260.144C167.682 257.661 166.13 255.179 165.027 253.416L165.027 253.415L165.026 253.415L165.026 253.414L165.024 253.41L165.022 253.409L165.022 253.408L165.022 253.407L165.021 253.406L165.019 253.403C164.32 252.284 163.802 251.457 163.577 251.106C161.898 248.653 160.93 244.973 161.64 243.747C162.027 243.037 161.963 242.714 161.317 242.714C159.962 242.714 157.315 247.039 155.572 252.01C154.733 254.334 153.893 256.27 153.635 256.27C152.667 256.27 153.119 233.16 154.152 225.736C156.282 211.082 161.898 193.006 164.416 193.006C164.932 193.006 165.384 192.748 165.384 192.361C165.384 191.199 163.706 191.651 162.35 193.136C159.316 196.428 155.314 206.563 152.796 217.344C151.053 224.768 149.956 234.322 149.568 244.715C149.246 253.688 149.375 255.173 150.666 260.079C152.151 265.566 153.313 267.18 155.314 266.406C156.024 266.147 156.347 265.179 156.347 263.372C156.347 261.951 157.121 257.691 158.09 253.882L159.768 247.039L160.478 249.88C161.382 253.172 166.675 263.372 171.452 270.795C174.745 275.831 174.809 276.153 175.907 284.029C176.488 288.483 178.295 299.318 182.491 315.984C186.199 330.71 207.041 345.317 212.246 348.965L212.246 348.965L212.249 348.967C212.933 349.446 213.346 349.736 213.413 349.811C214.059 350.521 214.963 350.908 215.479 350.715C216.06 350.521 216.383 350.779 216.383 351.489C216.383 352.135 216.835 352.974 217.351 353.361C217.997 353.813 218.449 355.556 218.578 358.59C218.901 364.659 223.419 376.278 226.905 380.087C229.165 382.54 233.877 383.573 239.106 382.669C242.528 382.153 243.496 381.766 243.173 380.991C242.98 380.475 244.206 381.12 245.885 382.411C265.509 397.388 285.392 406.361 307.728 410.234C316.379 411.719 330.71 412.558 338.521 411.977C345.429 411.526 345.429 411.526 345.106 412.881C344.654 414.689 345.235 415.786 354.724 431.86C362.277 444.578 362.923 445.417 371.315 454.003C389.132 472.401 408.563 486.668 430.577 497.707C451.299 508.035 484.383 516.621 514.628 519.333C544.872 522.044 566.594 494.285 566.53 487.184C566.401 477.436 565.045 471.045 561.753 464.848C558.525 458.844 556.395 456.779 546.711 450.323C535.931 443.158 529.282 437.283 524.892 431.021C522.116 427.083 521.083 422.629 521.083 420.24C521.083 418.691 523.084 415.205 526.054 414.495C528.765 413.785 529.282 413.85 532.316 415.334C534.123 416.174 538.836 418.368 542.709 420.24C546.647 422.048 550.456 423.856 551.23 424.243C553.514 424.877 554.48 429.348 555.003 431.771C555.12 432.312 555.215 432.751 555.297 433.022C556.201 436.379 560.478 440.714 563.238 442.189C568.083 444.781 580.023 445.127 583.315 441.577C584.155 440.673 586.937 439.562 587.51 439.898C588.084 440.235 590.157 443.028 590.157 445.288C590.222 449.161 592.223 452.712 596.483 456.262C604.553 462.976 610.815 464.59 617.141 461.62C620.433 460.071 623.132 459.466 623.132 459.466C623.132 459.466 625.823 462.9 625.985 464.073C627.253 473.245 640.832 477.09 644.448 477.478C645.276 477.561 646.889 477.206 648.526 476.846C650.716 476.365 652.951 475.873 653.421 476.403C654.343 477.444 637.992 504.485 635.733 507.906C614.236 540.184 572.404 559.938 521.212 562.004C487.966 563.359 447.103 554.063 411.662 537.15C389.003 526.24 368.927 512.877 347.43 494.156C343.686 490.928 339.36 487.249 337.811 485.958C336.262 484.731 332.582 480.535 329.742 476.662C324.965 470.206 322.253 467.882 322.253 470.077C322.253 471.045 325.352 476.984 328.902 482.859C330.323 485.183 331.226 486.797 330.904 486.539C330.581 486.28 329.548 490.928 328.58 496.867C325.416 515.911 320.188 534.697 314.894 546.381C311.989 552.708 306.419 557.432 304.74 558.723C298.543 563.436 289.266 565.554 276.419 566.845C260.151 568.459 236.201 564.844 217.932 558.001C213.091 556.194 200.631 550.965 199.792 550.384C199.742 550.333 199.456 548.476 199.057 545.884C198.944 545.153 198.823 544.364 198.695 543.541C196.371 527.596 193.143 466.204 193.143 437.799C193.143 426.05 193.014 423.468 192.239 423.468C190.625 423.468 189.98 425.018 189.27 430.569C187.656 443.222 187.979 509.262 189.722 523.141L190.109 526.305L187.914 525.078C184.557 523.141 171.775 510.166 167.321 504.162C163.55 499.03 161.309 492.456 159.632 487.538C159.242 486.394 158.883 485.34 158.541 484.414C149.181 458.463 152.473 429.343 165.384 403.133C176.359 380.797 189.851 368.403 209.605 362.399C212.832 361.431 215.673 360.398 215.996 360.14C217.222 358.978 209.346 359.559 205.021 360.914C190.948 365.24 176.23 377.053 166.224 392.159C152.151 413.333 145.824 444.578 150.278 471.239C151.311 477.565 155.507 491.251 156.669 492.219C156.772 492.322 157.303 493.436 158.106 495.121C160.327 499.779 164.627 508.8 167.708 512.877C171.452 517.977 182.75 529.08 187.462 532.502L190.432 534.632L190.884 539.861C191.723 549.867 192.046 550.771 196.564 554.128C207.862 562.714 230.133 570.718 250.274 573.559C259.635 574.85 279.97 574.398 287.716 572.72ZM505.913 512.102C468.406 508.81 423.088 490.927 390.294 463.298C376.48 451.613 358.533 428.891 351.432 416.303C349.947 413.72 348.85 412.494 347.559 412.171C346.203 411.784 347.365 411.396 352.917 410.493C376.35 406.49 399.138 396.742 417.537 382.863L420.248 380.862L421.023 382.734C422.766 386.93 429.479 391.191 434.45 391.191C436.451 391.191 443.165 388.157 447.232 385.381L450.008 383.509L452.267 385.768C454.333 387.834 454.72 387.963 458.594 387.963C463.048 387.963 468.406 385.962 471.376 383.121L472.989 381.637L477.573 384.671C480.026 386.414 486.869 390.222 492.743 393.256C501.523 397.775 510.819 403.004 519.663 408.427L521.083 409.331L519.727 411.138C518.307 413.075 515.662 416.755 515.662 422.371C515.662 428.697 522.24 440.064 534.833 447.87C544.727 454.003 561.753 466.066 561.107 483.698C561.029 485.828 558.654 491.122 555.491 495.899C553.425 498.933 547.68 503.452 542.451 506.099C533.542 510.553 517.855 513.135 505.913 512.102ZM161.705 222.314C163.448 222.702 164.61 223.283 164.351 223.541C163.512 224.38 159.058 223.993 158.025 222.96C156.411 221.411 156.798 220.313 159.058 219.861C160.22 219.668 161.963 218.699 162.931 217.731C163.9 216.763 164.739 216.311 164.739 216.634C164.739 217.473 161.511 220.442 159.897 221.088C158.864 221.54 159.187 221.733 161.705 222.314ZM187.398 223.347C189.27 222.314 188.882 221.604 186.688 221.927C184.493 222.25 184.364 221.992 185.784 219.797C186.365 218.958 186.688 217.731 186.558 217.086C186.365 216.246 185.913 216.634 184.88 218.699C184.105 220.184 183.008 221.411 182.491 221.411C180.878 221.411 180.748 222.702 182.298 223.283C184.299 224.122 185.848 224.122 187.398 223.347ZM165.062 188.1C163.512 188.358 158.671 190.295 154.41 192.425C150.085 194.491 146.405 196.234 146.147 196.17C139.562 195.46 148.729 184.485 165.384 173.253C181.329 162.472 192.11 156.791 202.116 153.886C208.378 152.079 215.415 151.82 217.416 153.305C218.513 154.144 218.126 154.209 213.349 154.273C203.02 154.273 191.077 159.567 171.646 172.542C161.576 179.256 149.891 188.875 149.891 190.424C149.891 190.747 151.763 190.101 154.087 189.069C159.058 186.809 164.158 185.647 166.417 186.164C168.806 186.809 168.289 187.648 165.062 188.1ZM190.044 193.652C196.113 192.425 196.371 192.361 196.371 191.715C196.371 191.393 194.047 191.07 191.142 190.941L185.913 190.747L190.754 185.26C193.401 182.226 196.5 179.192 197.597 178.482C199.986 176.932 200.115 175.835 198.178 175.189L196.694 174.737L198.307 174.156C199.211 173.834 200.89 173.704 202.052 173.898C203.795 174.156 204.182 174.027 203.988 173.123C203.795 172.22 203.085 172.026 199.921 172.091C190.69 172.22 186.752 174.673 193.982 175.835C195.983 176.158 197.662 176.674 197.662 176.997C197.662 177.255 197.339 177.513 196.952 177.513C195.725 177.513 185.332 188.036 184.041 190.618C182.04 194.427 183.137 195.008 190.044 193.652ZM232.651 168.605C230.779 168.734 230.327 169.057 230.456 169.96L230.476 170.092C230.548 170.569 230.59 170.844 230.483 170.927C230.338 171.039 229.923 170.804 228.947 170.25L228.777 170.154C227.551 169.508 227.422 169.186 228.132 168.669C228.584 168.282 229.81 167.701 230.779 167.507L232.586 167.055L231.231 165.635C230.52 164.796 230.133 164.021 230.327 163.763C230.843 163.247 237.17 163.957 238.073 164.667C238.461 164.99 239.042 164.925 239.429 164.538C240.333 163.634 241.559 164.344 241.559 165.764C241.559 166.539 241.366 166.603 240.785 166.022C240.268 165.506 239.816 165.506 239.235 165.958C238.719 166.41 238.332 166.41 238.009 165.893C237.815 165.571 236.589 165.248 235.298 165.248C234.106 165.248 233.543 165.248 233.428 165.475C233.325 165.678 233.583 166.065 234.071 166.797C235.101 168.406 235.04 168.411 232.673 168.603L232.651 168.605ZM222.838 151.433C222.838 150.594 222.064 149.109 221.095 148.141L219.288 146.333L228.971 146.72C234.329 146.979 240.397 147.56 242.528 148.141C244.658 148.657 247.111 149.044 248.015 149.044C249.371 149.044 249.112 148.786 246.595 147.431C242.205 145.171 236.589 144.074 225.808 143.299C212.897 142.395 206.377 143.622 207.603 146.85C207.797 147.495 208.83 147.818 210.379 147.818C213.542 147.818 218.707 149.69 220.45 151.433C222.322 153.305 222.838 153.305 222.838 151.433ZM191.335 322.375C196.564 329.089 203.472 336.706 206.7 339.288C208.636 340.838 210.315 342.129 210.444 342.129C210.508 342.129 209.088 339.159 207.281 335.544C199.986 321.019 195.725 306.559 193.724 289.904C193.272 286.224 192.562 283.125 191.787 281.834C190.238 279.252 190.238 275.895 191.852 272.732C192.691 271.054 193.143 268.923 193.143 266.599V263.049L190.044 266.277C187.01 269.44 184.105 270.731 184.105 268.794C184.105 267.374 188.882 260.531 191.4 258.401C193.401 256.722 193.659 256.141 194.305 251.106C194.757 248.072 195.79 242.714 196.629 239.163C197.533 235.613 198.049 232.579 197.92 232.45C197.468 231.998 182.298 249.421 180.232 254.979C179.778 256.2 178.554 258.336 177.585 259.627L175.907 261.782C175.907 261.782 176.428 264.8 177.004 268.593C177.586 272.424 177.859 275.058 178.103 277.404C178.428 280.543 178.7 283.165 179.586 287.451C180.619 292.744 181.652 297.328 181.91 297.65C182.104 298.038 182.943 301.007 183.783 304.299C185.59 311.594 188.624 318.824 191.335 322.375ZM453.3 383.444L451.945 382.088C451.945 382.088 474.445 353.501 478.477 342.968C481.553 334.93 483.364 332.65 485.807 332.65C487.174 332.65 488.289 332.962 488.805 333.737C489.709 335.092 490.58 336.771 489.418 342.516C487.482 351.812 484.512 357.945 475.603 371.179C473.538 374.213 470.891 377.57 469.729 378.732C467.018 381.249 460.918 383.831 457.367 384.412C455.108 384.735 454.462 384.606 453.3 383.444Z"
              fill="#00160A"/>
        <path d="M632.053 446.596C640.085 424.713 638.869 420.051 637.476 419.595C637.476 419.595 634.409 421.338 633.053 425.018C630.536 431.925 621.918 450 618.691 453.228C614.882 457.037 614.882 457.037 611.008 457.037C607.135 457.037 595.964 451.204 594.443 445.454C592.01 436.255 602.487 404.295 602.745 402.488L601.002 401.261C599.84 402.359 584.726 448.193 564.852 436.25C562.576 434.883 557.75 428.439 557.363 425.018C555.212 415.076 565.082 380.313 566.76 373.173C568.263 366.782 576.084 360.85 585.703 360.85C600.486 360.85 598.5 373.772 605.122 378.326C608.056 380.343 612.879 376.685 614.365 376.408C622.693 374.858 625.884 376.662 631.989 381.507C636.701 385.247 640.188 392.65 644.026 395.258C646.158 396.706 648.42 394.726 649.161 394.354C652.198 392.829 658.715 393.967 660.522 395.258C663.172 396.413 669.666 402.655 670.691 406.285C675.341 422.739 660.66 459.217 655.117 466.06C645.943 477.387 624.022 468.478 632.053 446.596Z"
              fill="white"/>
        <path fill-rule="evenodd" clip-rule="evenodd"
              d="M260.926 386.637C278.614 397.805 296.853 405.099 317.639 407.101C334.036 408.65 356.145 406.52 372.025 401.355C385.388 397.03 403.464 385.048 415.535 374.913C438.969 355.288 453.752 324.634 460.208 292.099C461.111 287.515 462.49 275.994 462.425 264.568C462.425 251.269 456.573 214.929 438.84 193.975C402.266 150.758 342.146 131.289 291.62 147.924C273.394 153.924 253.988 164.796 239.334 178.998C220.871 197.009 207.25 221.54 201.827 246.587C196.147 273.055 203.536 304.687 216.383 330.638C226.647 351.296 243.561 375.598 260.926 386.637ZM433.288 308.625C421.152 345.098 389.52 372.341 349.754 380.604C343.686 381.83 339.489 382.282 330.968 382.411C324.965 382.605 318.961 382.54 317.734 382.411C289.911 379.054 268.737 368.79 249.241 349.294C240.72 340.709 237.105 336.061 231.812 326.894C223.484 312.369 219.03 297.521 217.674 279.639C213.026 218.377 256.859 167.314 318.574 162.02C342.782 159.954 369.637 167.378 390.036 181.838C397.589 187.196 411.275 200.753 415.535 207.079C417.278 209.597 434.192 234.322 437.161 248.524C440.97 266.987 439.485 290.097 433.288 308.625Z"
              fill="white"/>
        <path fill-rule="evenodd" clip-rule="evenodd"
              d="M462.448 264.568C462.448 307.898 441.952 355.269 415.5 375.5C402.88 385.152 386.387 396.84 372.025 401.355C350.978 407.972 317.639 407.101 317.639 407.101C317.639 407.101 351.651 402.554 364.255 397.481C400.399 382.936 420.129 360.608 432.312 339.184C456.361 296.895 462.448 263.515 462.448 264.568Z"
              fill="#E7EAEE"/>
        <path fill-rule="evenodd" clip-rule="evenodd"
              d="M318.38 374.665C301.144 372.47 284.037 366.337 270.222 357.235C262.023 351.877 249.629 339.288 243.625 330.315C235.039 317.404 229.358 303.589 226.583 288.742C224.581 277.961 224.646 261.37 226.647 251.752C228.713 241.939 231.36 234.451 236.072 224.961C241.559 213.987 247.369 205.917 256.084 197.203C270.932 182.355 288.168 172.93 308.697 168.411C315.346 166.991 339.425 165.829 340.264 166.926C340.458 167.249 341.749 168.088 343.105 168.798C344.46 169.573 348.075 172.284 351.045 174.931C355.499 178.804 357.5 181.257 361.374 187.326C364.02 191.457 366.151 195.201 366.151 195.524C366.151 196.234 368.216 197.525 369.378 197.525C370.992 197.525 372.09 192.684 372.413 184.162C372.606 179.45 372.994 175.577 373.252 175.577C374.156 175.577 384.097 181.064 388.745 184.162C397.847 190.231 406.95 198.752 413.663 207.66C416.697 211.663 417.149 212.696 417.149 215.149C417.149 217.408 417.795 219.151 419.796 222.637C424.831 231.417 428.769 242.456 431.158 254.657C432.707 262.855 432.707 278.348 431.093 286.934C426.703 310.561 413.663 334.059 396.685 348.972C382.29 361.56 366.99 369.307 348.915 373.115C342.717 374.471 324.125 375.375 318.38 374.665ZM272.223 330.509C272.804 329.863 273.191 328.895 272.998 328.443C272.94 328.307 272.131 327.927 270.948 327.371C268.19 326.075 263.395 323.82 261.317 321.471C253.054 312.046 250.02 305.01 248.148 290.485C246.34 276.347 247.859 266.79 251.117 251.429C252.707 243.936 256.932 237.746 259.56 233.895C261.348 231.277 262.397 229.74 261.378 229.609C258.86 229.222 258.473 229.416 255.826 231.933C250.145 237.356 247.563 241.681 244.852 250.009C240.656 263.049 239.845 298.29 248.148 314.176C256.45 330.063 270.738 332.187 272.223 330.509ZM364.02 276.283C362.924 286.311 358.275 300.814 352.852 307.14C350.335 310.109 341.093 315.209 333.292 314.176C325.757 313.179 319.865 309.658 314.829 302.105C310.504 295.585 308.27 287.67 306.76 277.703C304.152 260.491 315.54 240.454 320.446 235.484C325.416 230.384 328.967 228.576 333.486 228.512C337.876 228.512 340.716 229.48 345.17 232.643C353.304 238.324 366.151 256.795 364.02 276.283ZM277 222.895C278.291 221.411 278.485 220.701 278.098 217.925C277.839 215.343 277.323 214.31 275.967 213.212C273.579 211.276 270.609 211.276 268.414 213.341C266.865 214.826 266.671 215.343 266.865 218.893C267.059 222.702 267.188 222.96 269.318 224.122C272.158 225.671 274.934 225.219 277 222.895ZM317.283 183.065C305.663 191.393 300.627 194.814 295.398 198.042C291.267 200.624 289.976 200.689 289.976 198.365C289.976 197.138 290.879 195.782 293.203 193.652L296.431 190.682L290.169 189.843C283.133 188.939 276.29 187.003 274.805 185.518C272.352 183 274.482 182.419 281.454 183.711C284.553 184.227 290.557 184.873 294.817 185.002L302.564 185.324L308.18 181.257C320.51 172.349 333.292 167.314 339.425 168.863C343.234 169.767 342.782 170.799 338.457 171.316C333.486 171.897 330.452 173.575 317.283 183.065Z"
              fill="white"/>
        <path d="M333.873 305.332C333.873 305.01 334.26 304.687 334.777 304.687C335.293 304.687 335.939 305.01 336.133 305.332C336.326 305.72 335.939 305.978 335.229 305.978C334.454 305.978 333.873 305.72 333.873 305.332Z"
              fill="white"/>
        <path d="M337.746 304.751C337.746 304.041 339.36 303.396 341.168 303.396C342.588 303.46 342.588 303.46 341.362 304.364C339.941 305.461 337.746 305.655 337.746 304.751Z"
              fill="white"/>
        <path d="M327.74 303.073C327.547 302.557 327.289 301.653 327.095 301.136C326.901 300.491 327.224 300.168 328.063 300.168C328.773 300.168 329.354 300.555 329.354 301.072C329.354 301.588 329.548 302.427 329.742 303.008C330 303.719 329.806 304.041 329.096 304.041C328.515 304.041 327.87 303.589 327.74 303.073Z"
              fill="white"/>
        <path d="M331.162 301.459C330.839 299.522 331.549 298.877 333.873 298.877C334.583 298.877 335.164 299.522 335.422 300.62C335.939 302.492 335.1 303.396 332.84 303.396C331.807 303.396 331.355 302.944 331.162 301.459Z"
              fill="white"/>
        <path d="M324.577 301.782C323.351 300.814 323.351 300.814 324.706 300.814C325.546 300.814 326.127 301.201 326.127 301.782C326.127 302.944 326.127 302.944 324.577 301.782Z"
              fill="white"/>
        <path d="M337.553 301.717C336.714 300.878 337.101 298.36 338.134 297.973C340.006 297.263 340.845 297.586 341.232 299.264C341.491 300.233 341.62 301.072 341.491 301.136C340.974 301.717 337.94 302.105 337.553 301.717Z"
              fill="white"/>
        <path d="M343.298 300.362C343.105 300.168 342.911 299.329 342.911 298.554C342.911 297.457 343.427 297.005 344.977 296.682C346.332 296.424 347.172 296.553 347.559 297.069C348.204 298.102 348.204 299.393 347.623 299.716C346.461 300.362 343.75 300.749 343.298 300.362Z"
              fill="white"/>
        <path d="M321.608 298.36C321.608 297.586 322.189 296.94 323.028 296.747C324.706 296.295 324.642 296.23 324.965 297.909C325.094 298.877 324.771 299.264 323.415 299.393C321.995 299.587 321.608 299.329 321.608 298.36Z"
              fill="white"/>
        <path d="M326.514 298.425C325.61 297.457 326.191 295.649 327.418 295.649C328.257 295.649 328.709 296.101 328.709 296.876C328.709 298.102 327.224 299.135 326.514 298.425Z"
              fill="white"/>
        <path d="M330.387 296.488C329.871 295.262 330.968 294.358 333.098 294.358C334.067 294.358 334.519 294.745 334.519 295.585C334.519 296.295 333.938 296.94 333.098 297.198C330.968 297.715 330.839 297.715 330.387 296.488Z"
              fill="white"/>
        <path d="M349.044 296.295C349.237 295.972 349.56 295.649 349.754 295.649C349.947 295.649 349.883 295.972 349.689 296.295C349.496 296.682 349.173 296.94 348.979 296.94C348.785 296.94 348.85 296.682 349.044 296.295Z"
              fill="white"/>
        <path d="M336.197 295.197C335.681 293.906 336.326 293.261 338.392 292.938C339.554 292.809 340.07 293.067 340.2 293.971C340.651 296.101 336.972 297.263 336.197 295.197Z"
              fill="white"/>
        <path d="M320.704 294.1C320.123 291.969 320.252 291.776 321.931 291.776C322.834 291.776 323.544 292.034 323.544 292.357C323.544 292.68 323.738 293.39 323.932 293.906C324.125 294.552 323.738 294.939 322.641 295.133C321.414 295.391 320.962 295.133 320.704 294.1Z"
              fill="white"/>
        <path d="M342.265 293.39C342.265 292.228 342.717 291.711 343.944 291.388C345.751 290.937 346.784 291.84 346.784 293.906C346.784 294.745 346.268 295.004 344.525 295.004C342.524 295.004 342.265 294.81 342.265 293.39Z"
              fill="white"/>
        <path d="M318.767 293.39C318.574 292.873 318.703 292.421 319.025 292.421C319.413 292.421 319.671 292.873 319.671 293.39C319.671 293.906 319.542 294.358 319.413 294.358C319.284 294.358 319.025 293.906 318.767 293.39Z"
              fill="white"/>
        <path d="M325.287 293.906C324.384 293.067 324.9 291.259 326.062 290.937C326.772 290.743 327.482 290.807 327.676 291.001C328.451 291.711 327.999 293.583 327.03 293.971C325.804 294.423 325.804 294.423 325.287 293.906Z"
              fill="white"/>
        <path d="M348.334 293.454C347.623 291.582 348.398 290.162 350.206 289.968C351.561 289.775 351.949 290.033 351.949 291.066C351.949 293.196 351.239 294.358 349.947 294.358C349.237 294.358 348.527 293.971 348.334 293.454Z"
              fill="white"/>
        <path d="M329.806 292.615C329.031 291.905 329.29 290.614 330.387 290.226C331.614 289.775 334.196 291.066 333.486 291.776C332.582 292.55 330.258 293.131 329.806 292.615Z"
              fill="white"/>
        <path d="M335.422 291.001C334.841 290.097 336.907 288.548 338.586 288.548C339.36 288.548 339.683 288.935 339.554 289.645C339.296 290.937 336.003 291.969 335.422 291.001Z"
              fill="white"/>
        <path d="M317.734 290.549C317.734 290.226 317.541 289.516 317.347 288.935C317.153 288.354 317.218 287.902 317.605 287.902C318.445 287.902 319.09 290.356 318.315 290.872C317.993 291.066 317.734 290.937 317.734 290.549Z"
              fill="white"/>
        <path d="M319.477 289.064C319.09 287.644 319.865 286.611 321.35 286.611C322.189 286.611 323.028 289.129 322.512 289.968C321.801 291.066 319.8 290.42 319.477 289.064Z"
              fill="white"/>
        <path d="M323.996 289.387C323.028 288.419 323.609 286.095 324.9 285.772C325.868 285.514 326.385 285.837 326.901 286.999C327.289 287.838 327.482 288.677 327.353 288.806C326.708 289.387 324.384 289.839 323.996 289.387Z"
              fill="white"/>
        <path d="M341.426 289.387C340.587 288.548 340.974 288.032 342.911 287.322C344.525 286.805 344.977 286.87 345.299 287.644C345.88 289.194 342.653 290.678 341.426 289.387Z"
              fill="white"/>
        <path d="M347.107 287.903C346.462 286.87 347.365 285.966 349.044 285.966C351.045 285.966 351.626 287.644 349.818 288.161C347.882 288.677 347.559 288.613 347.107 287.903Z"
              fill="white"/>
        <path d="M352.594 286.353C352.594 285.385 353.756 284.352 354.273 284.868C354.725 285.32 353.821 287.257 353.175 287.257C352.852 287.257 352.594 286.87 352.594 286.353Z"
              fill="white"/>
        <path d="M316.895 285.514C316.637 285.32 316.443 284.481 316.508 283.771C316.508 282.544 316.572 282.544 317.153 283.965C317.799 285.514 317.67 286.289 316.895 285.514Z"
              fill="white"/>
        <path d="M318.122 284.546C317.541 282.286 317.605 282.093 319.284 282.093C321.156 282.093 322.318 284.481 320.898 285.385C319.413 286.289 318.574 286.03 318.122 284.546Z"
              fill="white"/>
        <path d="M340.329 285.837C340.329 285.643 340.652 284.61 341.039 283.448C341.943 280.866 343.944 280.737 344.396 283.255C344.589 284.223 344.654 285.062 344.589 285.127C344.267 285.514 340.329 286.095 340.329 285.837Z"
              fill="white"/>
        <path d="M322.705 284.223C322.447 284.029 322.253 283.255 322.253 282.544C322.253 281.512 322.447 281.447 323.222 282.093C323.738 282.544 324.19 283.319 324.19 283.771C324.19 284.739 323.415 284.998 322.705 284.223Z"
              fill="white"/>
        <path d="M345.945 282.932C345.558 280.931 346.397 280.027 348.398 280.285C349.366 280.414 349.689 280.995 349.689 282.415C349.689 284.029 349.431 284.417 348.011 284.546C346.591 284.739 346.268 284.417 345.945 282.932Z"
              fill="white"/>
        <path d="M352.271 283.19C351.432 280.608 351.69 279.833 353.433 279.639C354.983 279.446 355.176 279.639 355.176 281.318C355.176 282.738 354.789 283.319 353.821 283.577C353.111 283.771 352.401 283.577 352.271 283.19Z"
              fill="white"/>
        <path d="M315.927 279.51C315.927 278.284 316.056 277.767 316.25 278.413C316.379 278.994 316.379 280.027 316.25 280.672C316.056 281.253 315.927 280.737 315.927 279.51Z"
              fill="white"/>
        <path d="M317.541 280.35C316.702 279.575 317.089 277.057 318.122 276.67C319.607 276.089 320.317 276.799 320.317 278.929C320.317 280.285 319.994 280.801 319.155 280.801C318.509 280.801 317.734 280.608 317.541 280.35Z"
              fill="white"/>
        <path d="M321.414 278.607C321.156 277.638 321.027 276.605 321.285 276.412C321.93 275.766 322.318 276.799 322.124 278.671L321.93 280.479L321.414 278.607Z"
              fill="white"/>
        <path d="M342.265 278.155C342.265 277.445 342.588 277.057 342.911 277.251C343.298 277.445 343.556 278.09 343.556 278.607C343.556 279.123 343.298 279.51 342.911 279.51C342.588 279.51 342.265 278.929 342.265 278.155Z"
              fill="white"/>
        <path d="M345.17 278.994C344.267 278.026 344.977 276.283 346.461 275.895C348.334 275.443 348.398 275.443 348.979 277.315C349.366 278.477 349.108 278.736 347.43 278.994C346.397 279.188 345.364 279.123 345.17 278.994Z"
              fill="white"/>
        <path d="M351.109 277.767C350.399 277.122 350.593 274.991 351.303 274.991C351.69 274.991 351.949 274.733 351.949 274.346C351.949 274.023 351.561 273.7 351.045 273.7C349.947 273.7 349.044 270.537 349.947 269.633C351.109 268.471 352.4 269.698 353.175 272.861C353.627 274.54 354.079 276.476 354.273 277.122C354.531 277.961 354.273 278.219 353.046 278.219C352.207 278.219 351.303 278.026 351.109 277.767Z"
              fill="white"/>
        <path d="M354.595 274.346C354.144 272.409 352.982 268.536 352.142 265.696C350.851 261.564 350.722 260.531 351.432 260.079C351.884 259.756 352.465 259.498 352.659 259.498C353.369 259.498 355.951 272.732 355.693 275.314L355.499 277.896L354.595 274.346Z"
              fill="white"/>
        <path d="M315.281 274.023C315.281 272.99 315.41 272.603 315.604 273.248C315.733 273.829 315.733 274.733 315.604 275.185C315.41 275.572 315.281 275.121 315.281 274.023Z"
              fill="white"/>
        <path d="M316.572 273.894C316.831 271.635 318.703 271.118 319.219 273.184C319.671 274.862 319.8 274.669 317.863 275.314C316.508 275.702 316.379 275.572 316.572 273.894Z"
              fill="white"/>
        <path d="M343.815 273.313C343.298 271.441 344.396 270.344 346.461 270.602C348.011 270.795 348.592 273.571 347.301 274.41C345.687 275.443 344.202 274.991 343.815 273.313Z"
              fill="white"/>
        <path d="M320.317 272.797C320.317 271.699 320.639 271.118 321.35 271.118C321.995 271.118 322.253 271.57 322.124 272.538C321.801 274.604 320.317 274.798 320.317 272.797Z"
              fill="white"/>
        <path d="M314.571 270.085C314.571 269.375 314.765 269.182 314.959 269.698C315.152 270.15 315.088 270.731 314.894 270.925C314.7 271.183 314.507 270.795 314.571 270.085Z"
              fill="white"/>
        <path d="M315.798 269.892C315.798 268.923 316.185 268.536 317.153 268.536C318.057 268.536 318.38 268.859 318.251 269.633C317.928 271.312 315.798 271.505 315.798 269.892Z"
              fill="white"/>
        <path d="M319.348 269.311C318.896 268.149 318.896 268.149 320.833 267.632C321.995 267.245 322.253 267.439 322.253 268.407C322.253 269.956 319.929 270.731 319.348 269.311Z"
              fill="white"/>
        <path d="M342.717 268.407C342.265 266.793 343.105 265.954 345.364 265.954C346.461 265.954 346.784 266.341 346.784 267.568C346.784 268.536 346.397 269.181 345.881 269.181C345.364 269.181 344.525 269.375 344.008 269.569C343.427 269.762 342.976 269.375 342.717 268.407Z"
              fill="white"/>
        <path d="M348.334 266.922C347.817 265.631 348.592 264.663 350.076 264.663C350.98 264.663 351.303 265.115 351.303 266.277C351.303 267.439 350.98 267.89 350.012 267.89C349.302 267.89 348.527 267.439 348.334 266.922Z"
              fill="white"/>
        <path d="M315.152 266.018C315.152 264.663 316.637 263.113 317.283 263.823C317.541 264.017 317.734 264.921 317.734 265.76C317.734 266.793 317.347 267.245 316.443 267.245C315.604 267.245 315.152 266.793 315.152 266.018Z"
              fill="white"/>
        <path d="M318.703 265.244C318.186 263.63 318.767 262.92 320.962 262.597C322.963 262.339 323.609 264.469 321.866 265.76C320.188 266.987 319.155 266.793 318.703 265.244Z"
              fill="white"/>
        <path d="M342.072 264.856C341.62 264.469 341.426 262.08 341.814 262.08C341.878 262.08 342.846 261.822 344.008 261.499C345.945 260.918 346.074 260.983 346.01 262.726C345.945 264.017 345.558 264.663 344.589 264.921C342.846 265.373 342.588 265.373 342.072 264.856Z"
              fill="white"/>
        <path d="M339.683 263.372C339.683 262.92 339.877 262.726 340.135 262.92C340.329 263.178 340.329 263.565 340.135 263.823C339.877 264.017 339.683 263.823 339.683 263.372Z"
              fill="white"/>
        <path d="M346.913 262.339C347.107 261.241 349.108 259.627 349.56 260.144C349.754 260.337 350.077 261.112 350.27 261.951C350.722 263.242 350.528 263.372 348.721 263.372C347.172 263.372 346.72 263.113 346.913 262.339Z"
              fill="white"/>
        <path d="M315.798 262.274C315.798 261.951 316.121 261.306 316.443 260.789C316.96 260.015 317.089 260.079 317.089 261.306C317.089 262.08 316.831 262.726 316.443 262.726C316.121 262.726 315.798 262.532 315.798 262.274Z"
              fill="white"/>
        <path d="M317.734 260.854C317.734 259.046 319.09 258.465 320.123 259.821C320.768 260.789 320.768 261.112 320.123 261.564C318.767 262.403 317.734 262.145 317.734 260.854Z"
              fill="white"/>
        <path d="M337.359 260.015C336.197 258.724 336.197 258.659 337.295 259.046C337.94 259.305 338.779 259.498 339.102 259.498C339.425 259.498 339.683 259.95 339.683 260.467C339.683 261.822 338.779 261.693 337.359 260.015Z"
              fill="white"/>
        <path d="M323.48 259.95C320.704 257.82 320.317 253.043 322.899 253.043C324.642 253.043 326.256 255.754 325.997 258.272C325.804 260.596 325.029 261.112 323.48 259.95Z"
              fill="white"/>
        <path d="M341.168 260.337C341.426 260.144 341.813 260.144 342.072 260.337C342.265 260.596 342.072 260.789 341.62 260.789C341.168 260.789 340.974 260.596 341.168 260.337Z"
              fill="white"/>
        <path d="M350.916 257.82C351.109 257.239 351.303 256.658 351.303 256.529C351.303 256.4 351.626 256.27 351.949 256.27C352.336 256.27 352.594 256.851 352.594 257.562C352.594 258.336 352.142 258.853 351.561 258.853C350.851 258.853 350.658 258.53 350.916 257.82Z"
              fill="white"/>
        <path d="M317.089 257.626C317.089 256.141 318.445 253.688 319.219 253.688C320.575 253.688 319.607 257.82 318.186 258.078C317.605 258.207 317.089 258.013 317.089 257.626Z"
              fill="white"/>
        <path d="M331.614 256.916L329.677 256.464L331.42 256.012C333.228 255.496 334.519 255.883 334.519 256.981C334.519 257.626 334.454 257.626 331.614 256.916Z"
              fill="white"/>
        <path d="M329.354 253.817C329.354 251.171 330.839 250.783 332.195 253.107C333.099 254.657 333.163 254.979 332.324 254.979C331.807 254.979 330.968 255.173 330.387 255.367C329.613 255.689 329.354 255.302 329.354 253.817Z"
              fill="white"/>
        <path d="M340.587 254.721C337.682 253.43 335.81 250.009 335.81 245.942C335.81 243.037 336.068 242.327 337.811 240.713C338.908 239.68 340.006 238.841 340.329 238.841C341.749 238.841 346.978 243.811 348.721 246.91L350.722 250.461L348.592 252.72C346.139 255.302 343.427 256.012 340.587 254.721Z"
              fill="white"/>
        <path d="M327.095 253.043C326.901 252.72 327.03 252.397 327.353 252.397C327.74 252.397 328.063 252.72 328.063 253.043C328.063 253.43 327.934 253.688 327.805 253.688C327.611 253.688 327.289 253.43 327.095 253.043Z"
              fill="white"/>
        <path d="M318.638 252.01C318.832 251.429 319.026 250.848 319.026 250.719C319.026 250.59 319.607 250.461 320.317 250.461C321.931 250.461 321.995 251.493 320.381 252.397C318.638 253.301 318.186 253.236 318.638 252.01Z"
              fill="white"/>
        <path d="M323.738 251.235C322.253 251.042 321.801 250.202 322.77 249.621C323.028 249.428 324.19 249.105 325.352 248.847C327.095 248.459 327.418 248.588 327.418 249.686C327.418 251.042 326.062 251.623 323.738 251.235Z"
              fill="white"/>
        <path d="M328.709 249.04C328.709 248.266 328.773 247.814 328.902 247.943C328.967 248.072 329.483 248.718 329.935 249.363C330.71 250.267 330.645 250.461 329.742 250.461C329.096 250.461 328.709 249.944 328.709 249.04Z"
              fill="white"/>
        <path d="M319.671 248.588C319.671 248.201 319.994 247.749 320.317 247.556C320.704 247.362 320.962 247.62 320.962 248.137C320.962 248.718 320.704 249.169 320.317 249.169C319.994 249.169 319.671 248.911 319.671 248.588Z"
              fill="white"/>
        <path d="M322.06 247.62C321.543 246.329 326.127 244.909 326.901 246.135C327.482 247.168 326.901 247.62 324.448 248.137C322.963 248.459 322.318 248.33 322.06 247.62Z"
              fill="white"/>
        <path d="M328.128 245.554C328.128 244.844 328.321 244.651 328.515 245.167C328.709 245.619 328.644 246.2 328.451 246.394C328.257 246.652 328.063 246.264 328.128 245.554Z"
              fill="white"/>
        <path d="M322.641 244.521C323.415 243.101 325.675 240.777 326.256 240.777C326.901 240.777 326.966 243.811 326.32 244.199C325.997 244.328 324.965 244.651 323.996 244.909C322.576 245.232 322.253 245.167 322.641 244.521Z"
              fill="white"/>
        <path d="M327.805 243.037C327.095 241.1 327.418 240.261 328.967 240.003C330.581 239.68 330.581 239.68 329.548 241.681C328.257 244.263 328.321 244.263 327.805 243.037Z"
              fill="white"/>
        <path d="M327.418 239.163C327.418 239.034 328.709 238.13 330.323 237.227C332.259 236.065 333.615 235.677 334.583 235.936C335.745 236.323 335.423 236.581 332.582 237.937C329.419 239.357 327.418 239.873 327.418 239.163Z"
              fill="white"/>
        <path d="M363.246 181.968C361.503 179.45 357.823 175.383 355.176 172.93C352.53 170.477 350.787 168.476 351.303 168.476C352.723 168.476 363.569 171.445 366.28 172.607C368.539 173.575 368.604 173.704 368.023 175.706C367.7 176.868 367.442 179.773 367.442 182.161C367.442 184.614 367.248 186.551 366.99 186.551C366.667 186.551 365.053 184.485 363.246 181.968Z"
              fill="white"/>
        <path d="M231.876 377.505C229.229 376.149 228.648 375.375 225.292 368.726C220.45 359.3 220.321 357.106 224.904 362.464C226.712 364.594 230.908 368.984 234.2 372.211C239.816 377.634 240.075 378.021 238.203 377.763C236.847 377.57 236.33 377.699 236.653 378.215C237.428 379.377 234.975 379.054 231.876 377.505Z"
              fill="white"/>
        <path fill-rule="evenodd" clip-rule="evenodd"
              d="M340.063 495.119C339.527 493.846 340.125 492.38 341.397 491.845L342.788 491.255C356.31 485.469 364.072 481.993 369.346 476.474C374.62 470.955 375.251 462.849 376.242 457.916C376.513 456.563 379.579 458.94 380.932 459.212C382.286 459.484 383.163 460.802 382.891 462.155C381.7 468.086 378.492 473.74 373.327 479.107C368.18 484.456 358.214 490.19 343.337 496.453C342.065 496.989 340.599 496.391 340.063 495.119Z"
              fill="#00160A"/>
        <path fill-rule="evenodd" clip-rule="evenodd"
              d="M401.213 237.544C402.4 236.838 403.934 237.227 404.64 238.413C411.712 250.292 415.5 263.872 415.5 278C415.5 320.802 380.802 355.5 338 355.5C326.626 355.5 315.595 353.047 305.494 348.373C304.241 347.793 299.507 343.177 304.274 345.055C309.042 346.932 327.488 351.146 338.133 351.146C378.173 351.146 406.5 318.041 406.5 278C406.5 264.778 401.213 253.043 400.344 240.971C400.243 239.571 400.027 238.25 401.213 237.544Z"
              fill="#00160A"/>
        <path fill-rule="evenodd" clip-rule="evenodd"
              d="M153.619 426.755C154.502 425.695 156.079 423.551 157.14 424.435C161.492 428.06 166.136 432.26 171.104 433.07C176.274 433.914 182.407 433.914 189.495 433.056C190.866 432.89 192.111 433.867 192.277 435.237C192.443 436.608 191.467 437.854 190.096 438.02C182.568 438.931 175.972 438.931 170.299 438.005C164.424 437.046 158.96 434.458 153.94 430.276C152.879 429.393 152.735 427.816 153.619 426.755Z"
              fill="#00160A"/>
        <path d="M206.7 339.288C203.472 336.706 196.564 329.089 191.335 322.375C188.624 318.824 185.59 311.594 183.782 304.299C182.943 301.007 182.104 298.038 181.91 297.65C181.652 297.328 180.619 292.744 179.586 287.451C178.037 279.962 178.365 277.55 177.004 268.593C176.428 264.8 175.907 261.782 175.907 261.782L177.585 259.627C178.553 258.336 179.778 256.2 180.232 254.979C182.298 249.421 197.468 231.998 197.92 232.45C198.049 232.579 197.533 235.613 196.629 239.163C195.79 242.714 194.757 248.072 194.305 251.106C193.659 256.141 193.401 256.722 191.4 258.401C188.882 260.531 184.105 267.374 184.105 268.794C184.105 270.731 187.01 269.44 190.044 266.277L193.143 263.049V266.599C193.143 268.923 192.691 271.054 191.852 272.732C190.238 275.895 190.238 279.252 191.787 281.834C192.562 283.125 193.272 286.224 193.724 289.904C195.725 306.559 199.986 321.019 207.281 335.544C209.088 339.159 210.508 342.129 210.444 342.129C210.315 342.129 208.636 340.838 206.7 339.288Z"
              fill="white"/>
        <path fill-rule="evenodd" clip-rule="evenodd"
              d="M475.313 379.119L479.961 381.185C480.925 381.629 491.558 386.738 504.329 392.875C524.92 402.769 551.071 415.334 551.23 415.334C551.489 415.334 552.7 412.533 552.973 409.266C553.619 402.23 556.007 392.675 558.783 386.026C560.074 383.057 561.107 379.345 561.107 379.023C561.107 378.875 560.058 378.452 558.34 377.759C556.294 376.934 553.302 375.727 550.004 374.148C533.736 366.337 501.91 350.392 497.972 348.003C494.099 345.744 493.324 345.55 493.324 347.035C493.324 348.972 489.386 357.945 486.352 362.786C484.739 365.433 481.575 370.21 479.316 373.373L475.313 379.119ZM550.133 403.714C551.984 404.787 548.777 406.361 548.003 406.619C543.441 407.007 538.071 406.149 533.671 403.585C531.371 401.954 513.256 391.89 501.24 385.215C495.747 382.163 491.528 379.819 490.678 379.313C487.966 377.699 485.384 375.956 484.932 375.439C483.577 373.696 484.868 372.922 488.676 373.244C490.966 373.438 546.134 401.397 550.133 403.714Z"
              fill="white"/>
        <path d="M428.963 384.929C427.284 384.348 425.477 383.057 424.315 381.572L422.378 379.183L429.221 372.405C439.744 362.076 447.49 350.788 454.462 338.2C456.786 334.004 463.693 317.081 464.533 315.209C465.824 312.498 466.792 311.465 469.568 309.916C472.86 307.979 476.604 307.334 478.218 308.431C481.317 310.497 481.317 317.017 478.218 328.249C474.797 340.579 470.214 349.424 460.724 362.141C459.239 364.078 456.463 367.886 454.462 370.533C449.104 377.634 445.618 381.056 440.905 383.702C436.258 386.285 433.546 386.607 428.963 384.929Z"
              fill="white"/>
        <path d="M453.3 383.444L451.944 382.088C451.944 382.088 474.445 353.501 478.477 342.968C481.553 334.93 483.364 332.65 485.807 332.65C487.174 332.65 488.289 332.962 488.805 333.737C489.709 335.092 490.58 336.771 489.418 342.516C487.481 351.812 484.512 357.945 475.603 371.179C473.538 374.213 470.891 377.57 469.729 378.732C467.017 381.249 460.918 383.831 457.367 384.412C455.108 384.735 454.462 384.606 453.3 383.444Z"
              fill="white"/>
        <path fill-rule="evenodd" clip-rule="evenodd"
              d="M491.095 353.551C492.397 350.573 493.324 347.975 493.324 347.035C493.324 345.55 494.099 345.744 497.972 348.003C501.91 350.392 533.736 366.337 550.004 374.148C556.072 377.053 561.107 378.7 561.107 379.023C561.107 379.345 489.714 356.709 491.095 353.551Z"
              fill="#E7EAEE"/>
        <path fill-rule="evenodd" clip-rule="evenodd"
              d="M270.222 357.235C262.023 351.877 249.629 339.288 243.625 330.315C235.039 317.404 229.358 303.589 226.583 288.742C224.581 277.961 224.646 261.37 226.647 251.752C228.713 241.939 231.36 234.451 236.072 224.961C241.559 213.987 247.369 205.917 256.084 197.203C264.63 188.656 226.647 223.998 236.072 287.233C243.625 340.223 276.085 361.098 270.222 357.235Z"
              fill="#E7EAEE"/>
    </g>
    <defs>
        <filter id="filter0_d_0_151" x="0" y="0" width="758" height="758" filterUnits="userSpaceOnUse"
                color-interpolation-filters="sRGB">
            <feFlood flood-opacity="0" result="BackgroundImageFix"/>
            <feColorMatrix in="SourceAlpha" type="matrix" values="0 0 0 0 0 0 0 0 0 0 0 0 0 0 0 0 0 0 127 0"
                           result="hardAlpha"/>
            <feOffset dy="4"/>
            <feGaussianBlur stdDeviation="2"/>
            <feComposite in2="hardAlpha" operator="out"/>
            <feColorMatrix type="matrix" values="0 0 0 0 0 0 0 0 0 0 0 0 0 0 0 0 0 0 0.25 0"/>
            <feBlend mode="normal" in2="BackgroundImageFix" result="effect1_dropShadow_0_151"/>
            <feBlend mode="normal" in="SourceGraphic" in2="effect1_dropShadow_0_151" result="shape"/>
        </filter>
    </defs>
</svg>
