<svg width="36" height="36" viewBox="0 0 36 36" fill="none" xmlns="http://www.w3.org/2000/svg">
    <path d="M12.2107 9C8.7831 9 6 11.783 6 15.24C6 18.4918 8.49025 21.1285 11.6541 21.4214C11.0096 22.5931 9.8378 23.853 7.84558 25.0541C7.28891 25.3764 6.93747 25.9623 6.93747 26.5776C6.93747 27.8372 8.22653 28.7161 9.39826 28.1889C12.7968 26.6653 18.4507 22.945 18.4507 15.2402C18.4507 11.7832 15.6676 9.00016 12.2107 9.00016L12.2107 9Z"
          fill="#158FFF"/>
    <path d="M26.1629 9.00037C22.7058 9.00037 19.9229 11.7834 19.9229 15.2404C19.9229 18.4922 22.4131 21.1288 25.5769 21.4218C24.9324 22.5935 23.7607 23.8533 21.7684 25.0545C21.2118 25.3768 20.8603 25.9626 20.8603 26.5779C20.8603 27.8376 22.1494 28.7165 23.3211 28.1893C26.69 26.6658 32.3442 22.9746 32.3442 15.2405C32.3736 11.7833 29.5906 9 26.1628 9L26.1629 9.00037Z"
          fill="#158FFF"/>
</svg>
